<?xml version="1.0" encoding="utf-8"?>
<!-- Generator: Adobe Illustrator 16.0.0, SVG Export Plug-In . SVG Version: 6.00 Build 0)  -->
<!DOCTYPE svg PUBLIC "-//W3C//DTD SVG 1.1//EN" "http://www.w3.org/Graphics/SVG/1.1/DTD/svg11.dtd">
<svg version="1.1" id="Layer_1" xmlns="http://www.w3.org/2000/svg" xmlns:xlink="http://www.w3.org/1999/xlink" x="0px" y="0px"
	 width="25.083px" height="51.012px" viewBox="0 0 25.083 51.012" enable-background="new 0 0 25.083 51.012" xml:space="preserve">
<path fill="#8B8B8B" stroke="#FFFFFF" stroke-miterlimit="10" d="M25.083,12.54c0-0.473-0.028-0.937-0.082-1.396h-1.41
	c-0.627-5.041-4.613-9.026-9.653-9.658V0.08c-0.459-0.054-0.923-0.082-1.395-0.082c-0.471,0-0.935,0.028-1.394,0.083V1.49
	c-5.04,0.629-9.027,4.614-9.658,9.655H0.083C0.031,11.603,0,12.068,0,12.54c0,0.471,0.031,0.935,0.083,1.393h1.408
	c0.629,5.041,4.617,9.028,9.657,9.66v1.406c0.459,0.052,0.923,0.082,1.394,0.082c0.472,0,0.936-0.03,1.395-0.082v-1.41
	c5.038-0.628,9.026-4.615,9.659-9.656h1.406C25.053,13.475,25.083,13.011,25.083,12.54z M13.936,20.774v-1.269
	c0-0.771-0.624-1.395-1.395-1.395c-0.769,0-1.394,0.622-1.394,1.395v1.269c-3.497-0.588-6.252-3.342-6.84-6.841l1.267-0.002
	c0.771,0,1.394-0.623,1.394-1.393c0-0.771-0.623-1.396-1.394-1.396H4.306c0.59-3.498,3.345-6.252,6.842-6.842V5.57
	c0,0.771,0.625,1.395,1.394,1.395c0.771,0,1.395-0.625,1.395-1.395V4.302c3.499,0.588,6.254,3.343,6.842,6.842H19.51
	c-0.771,0-1.393,0.624-1.393,1.396c0,0.77,0.62,1.393,1.393,1.393l1.269,0.002C20.187,17.433,17.435,20.186,13.936,20.774z"/>
<path fill="#E74C3C" stroke="#FFFFFF" stroke-miterlimit="10" d="M25.083,38.468c0-0.471-0.028-0.936-0.082-1.395h-1.41
	c-0.627-5.045-4.613-9.034-9.653-9.665V26c-0.459-0.051-0.923-0.082-1.395-0.082c-0.471,0-0.935,0.031-1.394,0.082v1.409
	c-5.04,0.631-9.028,4.62-9.658,9.665H0.083C0.031,37.532,0,37.997,0,38.468c0,0.472,0.031,0.935,0.083,1.394h1.408
	c0.629,5.043,4.617,9.03,9.657,9.662v1.406c0.459,0.052,0.923,0.082,1.394,0.082c0.472,0,0.936-0.03,1.395-0.082v-1.41
	c5.038-0.628,9.026-4.615,9.659-9.658h1.406C25.053,39.404,25.083,38.94,25.083,38.468z M13.936,46.706v-1.271
	c0-0.77-0.624-1.393-1.395-1.393c-0.769,0-1.394,0.623-1.394,1.393v1.271c-3.497-0.588-6.252-3.345-6.84-6.845l1.267-0.002
	c0.771,0,1.394-0.623,1.394-1.394c0-0.771-0.623-1.396-1.394-1.396H4.306c0.59-3.5,3.345-6.256,6.842-6.847v1.271
	c0,0.771,0.625,1.396,1.394,1.396c0.771,0,1.395-0.624,1.395-1.396v-1.271c3.499,0.589,6.254,3.346,6.842,6.847H19.51
	c-0.771,0-1.393,0.625-1.393,1.396c0,0.771,0.62,1.394,1.393,1.394l1.269,0.002C20.187,43.363,17.435,46.118,13.936,46.706z"/>
<path fill="#8B8B8B" d="M65.834,6.326L65.834,6.326c2.564-3.876,1.99-8.904-1.312-12.259c-1.885-1.886-4.294-2.882-6.913-2.882
	c-2.616,0-5.08,1.048-6.966,2.882C46.769-2.056,46.82,4.127,50.592,7.95c1.887,1.886,4.296,2.881,6.967,2.881
	c1.938,0,3.771-0.524,5.342-1.521l4.717,4.715c1.047,1.051,2.672,1.051,3.719,0l1.102-1.101L65.834,6.326z M53.579,4.965
	c-2.098-2.096-2.201-5.5-0.211-7.753c0.053-0.104,0.156-0.157,0.211-0.21c1.101-1.048,2.461-1.676,3.979-1.676
	c1.521,0,2.937,0.573,3.979,1.676c2.198,2.2,2.198,5.762,0,7.962C60.491,6.01,59.077,6.64,57.558,6.64
	C56.04,6.641,54.678,6.011,53.579,4.965z"/>
<path fill="#EF7B25" d="M57.561,5.571c0,0,3.296-3.86,3.296-5.683s-1.478-3.295-3.296-3.295s-3.295,1.475-3.295,3.295
	S57.561,5.571,57.561,5.571z M57.561-2.121c0.71,0,1.286,0.576,1.286,1.286s-0.575,1.286-1.286,1.286
	c-0.71,0-1.287-0.576-1.287-1.286S56.851-2.121,57.561-2.121z"/>
</svg>
