<?xml version="1.0" encoding="utf-8"?>
<!-- Generator: Adobe Illustrator 16.0.0, SVG Export Plug-In . SVG Version: 6.00 Build 0)  -->
<!DOCTYPE svg PUBLIC "-//W3C//DTD SVG 1.1//EN" "http://www.w3.org/Graphics/SVG/1.1/DTD/svg11.dtd">
<svg version="1.1" id="Calque_1" xmlns="http://www.w3.org/2000/svg" xmlns:xlink="http://www.w3.org/1999/xlink" x="0px" y="0px"
	 width="28.625px" height="100.875px" viewBox="0 0 28.625 100.875" enable-background="new 0 0 28.625 100.875"
	 xml:space="preserve">
<path fill="none" stroke="#E74C3C" stroke-width="2" stroke-miterlimit="10" d="M14.25,25.188c1.018-1.018,6.826-6.829,10.455-10.46
	c3.255-3.253,3.184-7.994,0.228-10.935c-2.958-2.943-7.739-2.93-10.682,0.029C11.31,0.863,6.526,0.85,3.569,3.792
	c-2.958,2.941-3.027,7.682,0.225,10.935C7.425,18.358,13.234,24.17,14.25,25.188z"/>
<path fill="#E74C3C" stroke="#E74C3C" stroke-miterlimit="10" d="M14.25,63.004c1.018-1.018,6.826-6.829,10.455-10.46
	c3.255-3.255,3.184-7.997,0.228-10.94c-2.958-2.944-7.739-2.931-10.682,0.029c-2.94-2.96-7.723-2.974-10.681-0.029
	c-2.958,2.943-3.027,7.686,0.225,10.94C7.425,56.175,13.234,61.986,14.25,63.004z"/>
<path fill="#FFFFFF" stroke="#FFFFFF" stroke-miterlimit="10" d="M14.25,100.04c1.018-1.018,6.826-6.829,10.455-10.46
	c3.255-3.255,3.184-7.997,0.228-10.94c-2.958-2.944-7.739-2.931-10.682,0.029c-2.94-2.96-7.723-2.974-10.681-0.029
	c-2.958,2.943-3.027,7.686,0.225,10.94C7.425,93.211,13.234,99.022,14.25,100.04z"/>
<image display="none" overflow="visible" width="35" height="25" xlink:href="coeur.png"  transform="matrix(1 0 0 1 -3.25 1.0088)">
</image>
</svg>
