<?xml version="1.0" encoding="utf-8"?>
<!-- Generator: Adobe Illustrator 16.0.0, SVG Export Plug-In . SVG Version: 6.00 Build 0)  -->
<!DOCTYPE svg PUBLIC "-//W3C//DTD SVG 1.1//EN" "http://www.w3.org/Graphics/SVG/1.1/DTD/svg11.dtd">
<svg version="1.1" xmlns="http://www.w3.org/2000/svg" xmlns:xlink="http://www.w3.org/1999/xlink" x="0px" y="0px" width="100px"
	 height="100px" viewBox="0 0 100 100" enable-background="new 0 0 100 100" xml:space="preserve">
<g id="Calque_2" display="none">
	<rect display="inline" fill="#F1F1F1" width="100" height="100"/>
</g>
<g id="Calque_1" display="none">
	<path display="inline" fill="#FFFFFF" d="M8.736,100c2.142-0.569,4.422-1.077,6.867-1.501c4.84-0.91,7.361-1.414,7.563-1.516
		c1.666-0.857,2.75-2.017,3.252-3.48c0.404-1.913,0.806-3.552,1.211-4.917c0.556-1.712,1.486-2.695,2.798-2.947
		c1.412-0.253,2.433-0.946,3.064-2.083c-1.327-0.621-2.574-2.41-3.744-5.37c-1.179-2.958-2.063-7.57-2.647-13.842
		c-1.711,1.896-2.982,1.759-3.82-0.416c-0.859-2.24-1.866-4.824-3.026-7.756c-1.174-2.94-1.741-5.574-1.702-7.901
		c0.044-2.271,1.103-3.243,3.176-2.915c0.354-2.244,0.529-3.419,0.529-3.518c0-0.55-0.214-1.485-0.64-2.798
		c-0.428-1.329-0.479-3.307-0.154-5.94c0.325-2.633,0.276-4.98-0.151-7.036c-0.427-2.045-0.063-4.026,1.097-5.936
		c1.411-1.969,2.396-3.582,2.951-4.844c1.057-2.319,4.185-4.462,9.378-6.43c5.142-1.976,10.263-2.983,15.355-3.026
		c0-0.5,1.11-0.554,3.331-0.15c2.521,0.556,5.194,1.64,8.016,3.252c0.962,0.577,2.512,1.975,4.654,4.2
		c0.513-0.451,1.256-0.791,2.229-1.022c0.709-0.15,1.312-0.228,1.818-0.228c2.421,0,4.109,2.044,5.068,6.128
		c0.657,2.926,0.981,7.415,0.981,13.466c0,5.294-0.025,8.168-0.073,8.624c-0.083,0.543-0.374,2.183-0.87,4.916
		c0.872-0.531,1.593-0.455,2.155,0.228c0.575,0.687,0.912,1.231,1.021,1.626c0.103,0.396,0.042,2.176-0.189,5.333
		c-0.236,3.165-0.651,5.93-1.247,8.285c-0.591,2.354-2.447,4.462-5.56,6.314c0,4.39-0.604,8.069-1.815,11.044
		c-1.005,2.588-2.413,4.507-4.236,5.752c0.151,0.252,0.378,0.553,0.682,0.906c0.25,0.454,0.328,1.06,0.228,1.813
		c1.815-0.906,3.251-0.576,4.309,0.985c0.656,0.957,1.543,2.851,2.649,5.673c1.008,2.118,2.851,3.556,5.521,4.311
		c1.514,0.407,3.631,0.758,6.355,1.062c0.763,0.155,1.605,1.438,2.516,1.832L8.736,100z"/>
</g>
<g id="Calque_3">
	<path fill="#E74C3C" d="M17.517,89.141c1.786-0.476,3.686-0.897,5.723-1.252c4.034-0.757,6.135-1.177,6.304-1.262
		c1.387-0.715,2.291-1.681,2.709-2.9c0.337-1.596,0.672-2.962,1.01-4.099c0.463-1.427,1.239-2.247,2.332-2.456
		c1.177-0.212,2.027-0.789,2.554-1.735c-1.105-0.519-2.145-2.01-3.12-4.477c-0.982-2.466-1.72-6.31-2.207-11.536
		c-1.426,1.58-2.486,1.465-3.184-0.349c-0.715-1.865-1.555-4.019-2.522-6.463c-0.978-2.449-1.45-4.644-1.418-6.586
		c0.037-1.89,0.919-2.7,2.647-2.428c0.295-1.869,0.441-2.848,0.441-2.93c0-0.459-0.179-1.237-0.534-2.332
		c-0.356-1.106-0.399-2.755-0.128-4.95c0.271-2.194,0.229-4.15-0.126-5.863c-0.356-1.706-0.052-3.355,0.915-4.948
		c1.176-1.64,1.996-2.985,2.459-4.036c0.881-1.934,3.488-3.719,7.816-5.359c4.286-1.647,8.555-2.487,12.798-2.522
		c0-0.418,0.926-0.462,2.776-0.125c2.101,0.462,4.328,1.367,6.681,2.711c0.802,0.48,2.093,1.646,3.879,3.5
		c0.426-0.375,1.047-0.659,1.857-0.852c0.591-0.125,1.094-0.19,1.516-0.19c2.019,0,3.424,1.703,4.224,5.107
		c0.547,2.438,0.819,6.18,0.819,11.223c0,4.413-0.023,6.808-0.063,7.187c-0.067,0.453-0.312,1.819-0.726,4.097
		c0.728-0.442,1.329-0.379,1.797,0.19c0.479,0.572,0.761,1.023,0.853,1.354c0.085,0.33,0.034,1.812-0.159,4.444
		c-0.196,2.637-0.542,4.94-1.04,6.904c-0.491,1.962-2.038,3.719-4.633,5.265c0,3.657-0.503,6.724-1.515,9.204
		c-0.834,2.155-2.009,3.755-3.529,4.793c0.126,0.209,0.316,0.461,0.568,0.755c0.208,0.38,0.272,0.883,0.189,1.512
		c1.514-0.755,2.71-0.481,3.592,0.821c0.547,0.798,1.284,2.375,2.207,4.728c0.84,1.766,2.376,2.964,4.603,3.593
		c1.261,0.339,3.026,0.631,5.298,0.885c0.634,0.131,1.337,0.364,2.095,0.693c10.298-9.167,16.788-22.52,16.788-37.394
		C100.062,23.414,77.651,1,50,1C22.351,1-0.062,23.414-0.062,51.062C-0.064,66.312,6.761,79.959,17.517,89.141z"/>
</g>
<g id="Calque_4">
</g>
</svg>
