<?xml version="1.0" encoding="utf-8"?>
<!-- Generator: Adobe Illustrator 16.0.0, SVG Export Plug-In . SVG Version: 6.00 Build 0)  -->
<!DOCTYPE svg PUBLIC "-//W3C//DTD SVG 1.1//EN" "http://www.w3.org/Graphics/SVG/1.1/DTD/svg11.dtd">
<svg version="1.1" xmlns="http://www.w3.org/2000/svg" xmlns:xlink="http://www.w3.org/1999/xlink" x="0px" y="0px"
	 width="101.333px" height="81.832px" viewBox="0 0 101.333 81.832" enable-background="new 0 0 101.333 81.832"
	 xml:space="preserve">
<g id="Calque_2_1_" display="none">
	<rect x="-7" y="-6.584" display="inline" stroke="#FFFFFF" stroke-miterlimit="10" width="122.833" height="94.833"/>
</g>
<g id="Calque_1">
	<g id="Calque_2" display="none">
		<rect x="-23.833" y="-18.668" display="inline" fill="#181910" width="142.25" height="114.5"/>
	</g>
	<g id="Calque_1_1_">
		<path fill="#E84C3C" d="M71.422,61.109l-5.559-9.853H12.653V4.032H35.1v-3.2h30.174v3.2h22.445v47.225H77.243L71.422,61.109z
			 M14.444,49.466h52.467l4.547,8.06l4.763-8.06h9.708V5.823H63.482v-3.2h-26.59v3.2H14.444V49.466z M50.187,42.617
			c-4.608,0-8.892-2.077-11.753-5.697l1.406-1.11c2.519,3.188,6.29,5.015,10.347,5.015c7.267,0,13.179-5.913,13.179-13.18
			c0-7.268-5.912-13.181-13.179-13.181c-5.529,0-10.511,3.491-12.394,8.688l-1.685-0.611c2.141-5.902,7.798-9.868,14.079-9.868
			c8.254,0,14.972,6.717,14.972,14.973C65.159,35.9,58.441,42.617,50.187,42.617z"/>
		<path fill="#E84C3C" d="M37.053,33.924l-6.722-11.643h13.443L37.053,33.924z M33.434,24.072l3.619,6.27l3.619-6.27H33.434z"/>
		<g>
			<path fill="#FFFFFF" stroke="#FFFFFF" stroke-width="1.1" stroke-miterlimit="10" d="M13.228,63.169h0.919v5.742h0.03
				c0.184-0.388,0.49-0.721,0.918-1.003c0.429-0.281,0.929-0.42,1.5-0.42c0.552,0,1,0.084,1.348,0.258
				c0.347,0.175,0.62,0.402,0.82,0.684c0.198,0.278,0.335,0.604,0.413,0.971c0.075,0.367,0.114,0.744,0.114,1.133v4.212h-0.918
				V70.58c0-0.286-0.025-0.563-0.077-0.833c-0.051-0.271-0.14-0.517-0.268-0.726c-0.128-0.217-0.306-0.39-0.535-0.515
				c-0.23-0.128-0.528-0.19-0.896-0.19c-0.336,0-0.657,0.058-0.958,0.176c-0.3,0.115-0.562,0.295-0.78,0.537
				c-0.22,0.238-0.393,0.539-0.52,0.9c-0.129,0.362-0.192,0.789-0.192,1.279v3.536h-0.919L13.228,63.169L13.228,63.169z"/>
			<path fill="#FFFFFF" stroke="#FFFFFF" stroke-width="1.1" stroke-miterlimit="10" d="M24.729,64.869
				c0-0.195,0.065-0.356,0.199-0.49c0.131-0.132,0.294-0.199,0.489-0.199c0.194,0,0.358,0.066,0.491,0.199
				c0.133,0.134,0.199,0.295,0.199,0.49c0,0.194-0.066,0.357-0.199,0.491c-0.132,0.132-0.296,0.198-0.491,0.198
				c-0.194,0-0.357-0.066-0.489-0.198C24.795,65.225,24.729,65.063,24.729,64.869z M24.958,67.672h0.917v7.073h-0.917V67.672z"/>
			<path fill="#FFFFFF" stroke="#FFFFFF" stroke-width="1.1" stroke-miterlimit="10" d="M31.542,69.663
				c0-0.134-0.005-0.294-0.015-0.484c-0.011-0.187-0.019-0.38-0.022-0.576c-0.005-0.192-0.014-0.374-0.024-0.542
				c-0.009-0.168-0.014-0.299-0.014-0.39h0.919c0.01,0.265,0.018,0.52,0.023,0.765c0.004,0.245,0.017,0.403,0.037,0.475h0.047
				c0.184-0.388,0.49-0.722,0.918-1.003s0.929-0.419,1.5-0.419c0.47,0,0.899,0.118,1.286,0.357c0.387,0.24,0.668,0.632,0.841,1.175
				c0.226-0.532,0.56-0.921,1.003-1.166c0.444-0.246,0.912-0.366,1.401-0.366c0.553,0,1,0.084,1.348,0.258
				c0.347,0.175,0.621,0.402,0.819,0.684c0.2,0.278,0.337,0.604,0.414,0.971c0.077,0.367,0.114,0.744,0.114,1.133v4.212H41.22V70.58
				c0-0.286-0.025-0.563-0.076-0.833c-0.051-0.271-0.141-0.517-0.267-0.726c-0.128-0.217-0.308-0.39-0.535-0.515
				c-0.23-0.128-0.529-0.19-0.897-0.19c-0.429,0-0.781,0.077-1.057,0.235c-0.275,0.158-0.493,0.36-0.651,0.604
				c-0.158,0.246-0.27,0.513-0.336,0.796c-0.067,0.288-0.1,0.558-0.1,0.813v3.979h-0.919v-4.256c0-0.653-0.121-1.18-0.36-1.578
				c-0.239-0.396-0.609-0.598-1.109-0.598c-0.337,0-0.658,0.06-0.958,0.178c-0.301,0.115-0.562,0.295-0.782,0.537
				c-0.218,0.238-0.393,0.539-0.52,0.9c-0.128,0.362-0.192,0.789-0.192,1.279v3.537h-0.919L31.542,69.663L31.542,69.663z"/>
			<path fill="#FFFFFF" stroke="#FFFFFF" stroke-width="1.1" stroke-miterlimit="10" d="M53.153,71.775
				c0,0.347,0.003,0.657,0.008,0.932c0.005,0.28,0.013,0.532,0.022,0.767c0.011,0.236,0.022,0.453,0.038,0.657
				c0.016,0.207,0.039,0.409,0.069,0.613h-0.857c-0.063-0.345-0.094-0.729-0.094-1.148H52.31c-0.266,0.459-0.594,0.798-0.986,1.012
				c-0.393,0.212-0.892,0.321-1.495,0.321c-0.306,0-0.608-0.04-0.904-0.117c-0.297-0.074-0.561-0.197-0.797-0.365
				c-0.234-0.169-0.426-0.386-0.574-0.651c-0.149-0.267-0.223-0.587-0.223-0.966c0-0.54,0.138-0.97,0.413-1.285
				c0.275-0.317,0.616-0.553,1.019-0.713c0.403-0.157,0.833-0.261,1.287-0.306c0.455-0.046,0.856-0.069,1.203-0.069h1.07v-0.43
				c0-0.613-0.188-1.051-0.566-1.316c-0.376-0.265-0.851-0.398-1.422-0.398c-0.817,0-1.538,0.265-2.16,0.795l-0.536-0.626
				c0.336-0.326,0.755-0.575,1.256-0.743c0.5-0.171,0.98-0.251,1.439-0.251c0.858,0,1.542,0.198,2.049,0.603
				c0.513,0.404,0.767,1.054,0.767,1.953v1.733H53.153z M51.316,71.192c-0.387,0-0.762,0.026-1.126,0.077
				c-0.363,0.051-0.69,0.137-0.981,0.261c-0.29,0.123-0.522,0.285-0.696,0.489c-0.173,0.204-0.262,0.459-0.262,0.766
				c0,0.216,0.049,0.405,0.146,0.574c0.096,0.168,0.222,0.307,0.375,0.413c0.153,0.106,0.325,0.188,0.514,0.245
				c0.187,0.056,0.379,0.082,0.575,0.082c0.489,0,0.891-0.069,1.21-0.212c0.316-0.143,0.568-0.33,0.758-0.559
				c0.188-0.231,0.319-0.491,0.392-0.784c0.071-0.29,0.104-0.581,0.104-0.88v-0.474L51.316,71.192L51.316,71.192z"/>
			<path fill="#FFFFFF" stroke="#FFFFFF" stroke-width="1.1" stroke-miterlimit="10" d="M65.77,74.286
				c0,0.879-0.127,1.588-0.382,2.129c-0.256,0.541-0.575,0.959-0.958,1.255c-0.382,0.297-0.794,0.493-1.232,0.599
				c-0.438,0.101-0.838,0.15-1.192,0.15c-0.36,0-0.71-0.032-1.052-0.099c-0.342-0.065-0.667-0.166-0.973-0.292
				c-0.304-0.127-0.583-0.282-0.831-0.467c-0.253-0.185-0.47-0.393-0.652-0.628l0.719-0.673c0.327,0.458,0.734,0.795,1.228,1.01
				c0.487,0.215,1.009,0.321,1.562,0.321c0.466,0,0.863-0.062,1.184-0.184c0.322-0.122,0.59-0.284,0.799-0.481
				c0.205-0.199,0.371-0.42,0.491-0.659c0.116-0.24,0.203-0.48,0.26-0.721c0.055-0.237,0.088-0.466,0.098-0.68
				c0.011-0.214,0.014-0.388,0.014-0.52v-0.982h-0.026c-0.267,0.43-0.629,0.765-1.082,1.012c-0.454,0.244-0.986,0.366-1.6,0.366
				c-0.52,0-1.01-0.094-1.469-0.283c-0.463-0.189-0.859-0.449-1.203-0.781c-0.343-0.332-0.613-0.716-0.811-1.156
				c-0.198-0.438-0.299-0.909-0.299-1.409s0.101-0.97,0.299-1.408c0.197-0.438,0.47-0.821,0.811-1.149
				c0.344-0.327,0.74-0.586,1.203-0.782c0.459-0.192,0.949-0.287,1.469-0.287c0.613,0,1.146,0.12,1.6,0.363
				c0.453,0.248,0.815,0.584,1.082,1.014h0.026v-1.194h0.922v6.617H65.77z M64.881,71.116c0-0.389-0.072-0.753-0.221-1.095
				s-0.348-0.638-0.597-0.888c-0.25-0.25-0.548-0.451-0.889-0.598c-0.343-0.148-0.708-0.223-1.095-0.223s-0.753,0.074-1.095,0.223
				c-0.343,0.146-0.638,0.348-0.887,0.598s-0.451,0.547-0.599,0.888c-0.146,0.342-0.222,0.706-0.222,1.095s0.074,0.752,0.222,1.095
				c0.148,0.342,0.35,0.639,0.599,0.888c0.25,0.251,0.545,0.45,0.887,0.599c0.343,0.147,0.708,0.22,1.095,0.22
				s0.754-0.072,1.095-0.22c0.342-0.149,0.637-0.349,0.889-0.599c0.249-0.249,0.448-0.547,0.597-0.888
				C64.807,71.868,64.881,71.505,64.881,71.116z"/>
			<path fill="#FFFFFF" stroke="#FFFFFF" stroke-width="1.1" stroke-miterlimit="10" d="M77.332,73.412
				c-0.356,0.543-0.799,0.932-1.325,1.165c-0.523,0.233-1.103,0.354-1.737,0.354c-0.542,0-1.032-0.095-1.472-0.277
				c-0.438-0.184-0.816-0.442-1.131-0.773c-0.317-0.332-0.559-0.726-0.728-1.18c-0.171-0.453-0.253-0.957-0.253-1.508
				c0-0.53,0.086-1.021,0.263-1.469c0.17-0.451,0.417-0.84,0.731-1.174c0.315-0.331,0.69-0.592,1.118-0.78
				c0.431-0.189,0.906-0.281,1.425-0.281c0.541,0,1.02,0.093,1.432,0.281c0.414,0.188,0.761,0.438,1.039,0.75
				c0.285,0.312,0.494,0.665,0.64,1.062c0.142,0.4,0.214,0.803,0.214,1.211v0.644h-5.94c0,0.195,0.037,0.44,0.114,0.742
				c0.076,0.302,0.216,0.595,0.422,0.88c0.204,0.286,0.475,0.53,0.819,0.735c0.341,0.204,0.783,0.306,1.323,0.306
				c0.469,0,0.927-0.111,1.362-0.335c0.44-0.227,0.776-0.533,1.011-0.92L77.332,73.412z M76.627,70.609
				c0-0.315-0.062-0.612-0.19-0.886c-0.128-0.275-0.304-0.519-0.521-0.727c-0.222-0.211-0.48-0.378-0.782-0.499
				c-0.302-0.123-0.62-0.185-0.958-0.185c-0.5,0-0.916,0.104-1.246,0.306c-0.332,0.207-0.594,0.441-0.789,0.706
				c-0.194,0.266-0.334,0.524-0.416,0.773c-0.08,0.25-0.12,0.421-0.12,0.513h5.022V70.609z"/>
			<path fill="#FFFFFF" stroke="#FFFFFF" stroke-width="1.1" stroke-miterlimit="10" d="M82.675,72.939
				c0.194,0.378,0.48,0.664,0.858,0.865c0.378,0.197,0.774,0.297,1.194,0.297c0.194,0,0.386-0.029,0.582-0.091
				c0.194-0.061,0.366-0.148,0.521-0.261c0.151-0.111,0.276-0.247,0.375-0.406c0.099-0.158,0.145-0.337,0.145-0.543
				c0-0.326-0.104-0.572-0.314-0.735c-0.209-0.164-0.468-0.29-0.773-0.383c-0.305-0.092-0.642-0.17-1.011-0.236
				c-0.366-0.065-0.703-0.169-1.007-0.307c-0.31-0.138-0.565-0.329-0.774-0.574c-0.21-0.247-0.312-0.592-0.312-1.042
				c0-0.348,0.07-0.646,0.213-0.905c0.145-0.252,0.329-0.465,0.559-0.635c0.229-0.168,0.487-0.293,0.773-0.375
				c0.285-0.081,0.577-0.12,0.873-0.12c0.581,0,1.084,0.104,1.506,0.319c0.425,0.215,0.756,0.553,0.988,1.011l-0.826,0.49
				c-0.174-0.325-0.391-0.574-0.651-0.743c-0.259-0.168-0.599-0.252-1.017-0.252c-0.163,0-0.334,0.027-0.513,0.076
				c-0.178,0.054-0.343,0.125-0.483,0.214c-0.143,0.094-0.262,0.211-0.357,0.354c-0.099,0.144-0.148,0.307-0.148,0.491
				c0,0.315,0.107,0.551,0.314,0.703c0.21,0.153,0.47,0.275,0.774,0.36c0.308,0.086,0.643,0.161,1.01,0.222
				c0.369,0.062,0.704,0.161,1.011,0.3c0.307,0.136,0.562,0.337,0.772,0.597c0.21,0.259,0.314,0.63,0.314,1.108
				c0,0.368-0.068,0.687-0.208,0.959c-0.138,0.27-0.328,0.495-0.565,0.681c-0.239,0.181-0.515,0.32-0.82,0.413
				c-0.307,0.092-0.629,0.138-0.963,0.138c-0.614,0-1.173-0.119-1.678-0.353c-0.505-0.232-0.896-0.597-1.172-1.088L82.675,72.939z"
				/>
		</g>
	</g>
</g>
</svg>
