<?xml version="1.0" encoding="utf-8"?>
<!-- Generator: Adobe Illustrator 16.0.0, SVG Export Plug-In . SVG Version: 6.00 Build 0)  -->
<!DOCTYPE svg PUBLIC "-//W3C//DTD SVG 1.1//EN" "http://www.w3.org/Graphics/SVG/1.1/DTD/svg11.dtd">
<svg version="1.1" xmlns="http://www.w3.org/2000/svg" xmlns:xlink="http://www.w3.org/1999/xlink" x="0px" y="0px"
	 width="48.083px" height="37.584px" viewBox="0 0 48.083 37.584" enable-background="new 0 0 48.083 37.584" xml:space="preserve">
<g id="Calque_2" display="none">
	<rect x="-75.917" y="-62.5" display="inline" fill="#E00000" width="239" height="165"/>
	<path display="inline" fill="#E74B3C" d="M13.541,20.425l-5.164-8.946h10.329L13.541,20.425z M10.761,12.854l2.78,4.817
		l2.781-4.817H10.761z"/>
</g>
<g id="Calque_1">
	<image overflow="visible" width="48" height="37" xlink:href="himages-logo-end.png"  transform="matrix(1 0 0 1 0.0835 0.5)">
	</image>
</g>
<g id="Calque_3">
	<path fill="#FFFFFF" d="M37.185,37.5l-3.413-6.052H1.084V2.438h13.789V0.473h18.536v1.965h13.787v29.01H40.76L37.185,37.5z
		 M2.185,30.348h32.23l2.793,4.951l2.925-4.951h5.964V3.539H32.309V1.573H15.974v1.965H2.185V30.348z M24.141,26.141
		c-2.832,0-5.463-1.276-7.22-3.499l0.863-0.683c1.548,1.958,3.864,3.081,6.357,3.081c4.464,0,8.096-3.632,8.096-8.096
		c0-4.465-3.632-8.097-8.096-8.097c-3.397,0-6.458,2.145-7.614,5.336l-1.035-0.375c1.315-3.625,4.79-6.062,8.649-6.062
		c5.071,0,9.195,4.126,9.195,9.198C33.336,22.015,29.212,26.141,24.141,26.141z"/>
	<path fill="#FFFFFF" d="M16.073,20.801l-4.129-7.151h8.258L16.073,20.801z M13.849,14.75l2.224,3.851l2.223-3.851H13.849z"/>
</g>
</svg>
