<?xml version="1.0" encoding="utf-8"?>
<!-- Generator: Adobe Illustrator 16.0.0, SVG Export Plug-In . SVG Version: 6.00 Build 0)  -->
<!DOCTYPE svg PUBLIC "-//W3C//DTD SVG 1.1//EN" "http://www.w3.org/Graphics/SVG/1.1/DTD/svg11.dtd">
<svg version="1.1" id="Calque_1" xmlns="http://www.w3.org/2000/svg" xmlns:xlink="http://www.w3.org/1999/xlink" x="0px" y="0px"
	 width="46.281px" height="37.121px" viewBox="-0.094 -0.094 46.281 37.121" enable-background="new -0.094 -0.094 46.281 37.121"
	 xml:space="preserve">
<g id="Calque_3">
	<path fill="#E74C3C" d="M30.262-0.781l-2.2-3.9H6.998v-18.694h8.886v-1.266h11.943v1.266h8.885v18.694h-4.147L30.262-0.781z
		 M7.708-5.39h20.768l1.8,3.19l1.886-3.19h3.844v-17.275h-8.886v-1.267H16.594v1.266H7.708V-5.39z M21.855-8.101
		c-1.825,0-3.52-0.821-4.652-2.255l0.557-0.439c0.997,1.261,2.49,1.984,4.096,1.984c2.877,0,5.217-2.339,5.217-5.216
		s-2.34-5.217-5.217-5.217c-2.188,0-4.16,1.382-4.906,3.439l-0.666-0.242c0.846-2.336,3.086-3.907,5.572-3.907
		c3.268,0,5.926,2.659,5.926,5.927C27.781-10.76,25.123-8.101,21.855-8.101z"/>
	<path fill="#E74C3C" d="M16.657-11.542l-2.661-4.608h5.322L16.657-11.542z M15.225-15.441l1.433,2.482l1.433-2.482H15.225z"/>
</g>
<g id="Calque_3_1_">
	<path fill="#E74C3C" d="M36.102,37.027l-3.414-6.053H0V1.965h13.789V0h18.535v1.965h13.787v29.01h-6.436L36.102,37.027z
		 M1.101,29.875H33.33l2.793,4.951l2.926-4.951h5.965V3.066H31.225V1.1H14.891v1.965H1.101V29.875z M23.057,25.668
		c-2.832,0-5.463-1.275-7.22-3.5l0.863-0.682c1.548,1.957,3.864,3.08,6.356,3.08c4.465,0,8.096-3.631,8.096-8.096
		s-3.631-8.097-8.096-8.097c-3.396,0-6.457,2.145-7.613,5.336l-1.035-0.375c1.314-3.625,4.79-6.062,8.648-6.062
		c5.07,0,9.195,4.126,9.195,9.198C32.252,21.541,28.127,25.668,23.057,25.668z"/>
	<path fill="#E74C3C" d="M14.989,20.328l-4.129-7.151h8.258L14.989,20.328z M12.765,14.277l2.224,3.852l2.223-3.852H12.765z"/>
</g>
</svg>
