<?xml version="1.0" encoding="utf-8"?>
<!-- Generator: Adobe Illustrator 16.0.0, SVG Export Plug-In . SVG Version: 6.00 Build 0)  -->
<!DOCTYPE svg PUBLIC "-//W3C//DTD SVG 1.1//EN" "http://www.w3.org/Graphics/SVG/1.1/DTD/svg11.dtd">
<svg version="1.1" id="Calque_1" xmlns="http://www.w3.org/2000/svg" xmlns:xlink="http://www.w3.org/1999/xlink" x="0px" y="0px"
	 width="50px" height="42.145px" viewBox="0 0 50 42.145" enable-background="new 0 0 50 42.145" xml:space="preserve">
<g id="Calque_1_1_">
	<rect y="2.132" fill="#E74C3C" width="49.99" height="31.449"/>
	<path display="none" fill="#FFFFFF" d="M22.886,23.474l-2.164-3.837H0V1.247h8.741V0h11.75v1.247h8.741v18.39h-4.081L22.886,23.474
		z M0.698,18.939H21.13l1.771,3.14l1.854-3.14h3.779V1.943h-8.74V0.698H9.439v1.245H0.698V18.939z M14.617,16.272
		c-1.795,0-3.463-0.809-4.577-2.218l0.547-0.433c0.981,1.24,2.45,1.953,4.03,1.953c2.83,0,5.132-2.303,5.132-5.134
		c0-2.83-2.302-5.133-5.132-5.133c-2.153,0-4.093,1.36-4.827,3.383L9.134,8.454c0.834-2.3,3.037-3.844,5.483-3.844
		c3.214,0,5.83,2.616,5.83,5.831C20.447,13.657,17.831,16.272,14.617,16.272z"/>
	<path fill="#FFFFFF" d="M16.249,22.039l-4.475-7.754h8.952L16.249,22.039z M13.84,15.477l2.409,4.175l2.411-4.175H13.84z"/>
	<path fill="#FFFFFF" stroke="#FFFFFF" stroke-width="0.5" stroke-miterlimit="10" d="M24.997,27.827
		c-3.07,0-5.922-1.385-7.828-3.794l0.936-0.739c1.679,2.122,4.189,3.34,6.892,3.34c4.839,0,8.776-3.938,8.776-8.777
		s-3.938-8.777-8.776-8.777c-3.683,0-7,2.325-8.255,5.785l-1.122-0.406c1.426-3.932,5.192-6.571,9.376-6.571
		c5.496,0,9.969,4.473,9.969,9.971C34.966,23.354,30.492,27.827,24.997,27.827"/>
	<path fill="#FFFFFF" d="M16.249,22.039l-4.475-7.754h8.952L16.249,22.039z"/>
	<rect y="0" display="none" fill="#EF7B25" width="29.232" height="23.474"/>
	<rect x="14.949" y="0" fill="#E74C3C" width="20.093" height="3.636"/>
	<polyline fill="#E74C3C" points="33.436,33.428 39.16,42.145 45.016,33.428 	"/>
	<rect y="0" display="none" fill="#A64895" width="50" height="50"/>
</g>
<g id="Calque_2">
</g>
</svg>
