<?xml version="1.0" encoding="utf-8"?>
<!-- Generator: Adobe Illustrator 16.0.0, SVG Export Plug-In . SVG Version: 6.00 Build 0)  -->
<!DOCTYPE svg PUBLIC "-//W3C//DTD SVG 1.1//EN" "http://www.w3.org/Graphics/SVG/1.1/DTD/svg11.dtd">
<svg version="1.1" id="Calque_1" xmlns="http://www.w3.org/2000/svg" xmlns:xlink="http://www.w3.org/1999/xlink" x="0px" y="0px"
	 width="80.229px" height="50.739px" viewBox="0 0 80.229 50.739" enable-background="new 0 0 80.229 50.739" xml:space="preserve">
<path fill="#8B8C8C" d="M73.428,35.27V5.094H50.982v-3.2H24.392v3.2H1.944v43.64h52.468h10.31h5.124v1.791h-5.104H53.365H0.153
	V3.303H22.6v-3.2h30.174v3.2h22.445V35.3L73.428,35.27z M37.688,41.885c-4.609,0-8.893-2.077-11.753-5.696l1.406-1.111
	c2.519,3.187,6.29,5.015,10.348,5.015c7.266,0,13.178-5.911,13.178-13.178c0-7.268-5.912-13.181-13.178-13.181
	c-5.529,0-10.512,3.491-12.395,8.688l-1.685-0.611c2.141-5.902,7.798-9.868,14.079-9.868c8.254,0,14.971,6.717,14.971,14.973
	C52.658,35.169,45.941,41.885,37.688,41.885z"/>
<path fill="#8B8C8C" d="M24.553,33.194l-6.722-11.642h13.443L24.553,33.194z M20.934,23.343l3.619,6.27l3.619-6.27H20.934z"/>
<rect x="71.45" y="47.61" display="none" fill="#FFFFFF" width="4.145" height="10.409"/>
<rect x="73.428" y="38.882" fill="#E84C3C" width="1.791" height="11.643"/>
<rect x="68.502" y="43.808" fill="#E84C3C" width="11.643" height="1.791"/>
<path fill="#EF7B25" d="M73.428,94.062v-30.19H50.982V60.67H24.392v3.201H1.944v43.655h52.468h10.31h5.124v1.791h-5.104H53.365
	H0.153V62.08H22.6v-3.201h30.174v3.201h22.445v32.013L73.428,94.062z M37.688,100.678c-4.609,0-8.893-2.077-11.753-5.696
	l1.406-1.111c2.519,3.188,6.29,5.016,10.348,5.016c7.266,0,13.178-5.912,13.178-13.183c0-7.271-5.912-13.188-13.178-13.188
	c-5.529,0-10.512,3.493-12.395,8.691l-1.685-0.61c2.141-5.905,7.798-9.873,14.079-9.873c8.254,0,14.971,6.72,14.971,14.979
	C52.658,93.961,45.941,100.678,37.688,100.678z"/>
<path fill="#EF7B25" d="M24.553,91.986l-6.722-11.648h13.443L24.553,91.986z M20.934,82.129l3.619,6.272l3.619-6.272H20.934z"/>
<rect x="73.428" y="97.675" fill="#EF7B25" width="1.791" height="11.643"/>
<rect x="68.502" y="102.601" fill="#EF7B25" width="11.643" height="1.791"/>
<rect x="68.287" y="37.091" display="none" fill="#FFFFFF" width="13.172" height="1.791"/>
<polygon display="none" fill="#FFFFFF" points="81.355,37.187 68.184,37.187 68.184,35.3 73.428,35.3 75.219,35.3 81.355,35.3 "/>
<rect x="69.846" y="47.361" display="none" fill="#FFFFFF" width="1.925" height="10.409"/>
</svg>
