<?xml version="1.0" encoding="utf-8"?>
<!-- Generator: Adobe Illustrator 16.0.0, SVG Export Plug-In . SVG Version: 6.00 Build 0)  -->
<!DOCTYPE svg PUBLIC "-//W3C//DTD SVG 1.1//EN" "http://www.w3.org/Graphics/SVG/1.1/DTD/svg11.dtd">
<svg version="1.1" id="Calque_1" xmlns="http://www.w3.org/2000/svg" xmlns:xlink="http://www.w3.org/1999/xlink" x="0px" y="0px"
	 width="25.004px" height="2505.069px" viewBox="0 0 25.004 2505.069" enable-background="new 0 0 25.004 2505.069"
	 xml:space="preserve">
<path fill="#E74C3C" d="M11.772,538.771c-0.401-0.528-0.366-1.282,0.116-1.767c0.263-0.263,0.608-0.396,0.954-0.396
	s0.689,0.133,0.953,0.396c0.525,0.527,0.525,1.383,0,1.909c-0.264,0.262-0.605,0.393-0.945,0.393c-0.288,0-0.575-0.092-0.816-0.271
	L1.01,550.062c0.184,0.146,0.471,0.337,0.756,0.337c0.069,0,0.139-0.015,0.207-0.037c0.623-0.232,0.394-1.03,0.394-1.03
	s5.923-3.915,11.672-3.915c0.24,0,0.479,0.006,0.719,0.021c0,0,0.6-1.615,3.461-6.461c2.084-3.53,5-5.83,5-5.83
	s-0.688-1.61-2.445-3.261c-1.312-1.229-2.061-1.795-3.115-2.306l0,0c0,0-2.299,2.918-5.828,5.005
	c-4.842,2.861-6.458,3.462-6.458,3.462c0.354,5.966-3.893,12.397-3.893,12.397s-0.143-0.04-0.325-0.04
	c-0.248,0-0.57,0.073-0.704,0.435c-0.13,0.349,0.115,0.734,0.3,0.962"/>
<path fill="#E74C3C" d="M24.129,532.696c-0.18,0-0.352-0.104-0.426-0.279c-0.008-0.017-0.682-1.551-2.34-3.104
	c-1.314-1.23-2.018-1.754-2.998-2.226c-0.23-0.111-0.326-0.389-0.217-0.619c0.109-0.229,0.391-0.326,0.619-0.217
	c1.078,0.521,1.834,1.077,3.229,2.385c1.811,1.693,2.523,3.348,2.559,3.414c0.1,0.235-0.012,0.508-0.244,0.607
	C24.252,532.684,24.189,532.696,24.129,532.696L24.129,532.696z"/>
<path fill="#E74C3C" d="M23.907,832.244c-0.582-2.171-2.003-7.266-2.89-8.722c-1.285-2.107-2.998-2.116-3.188-2.107v0.01
	c-0.031-0.003-0.062-0.01-0.095-0.01c-0.534,0-0.971,0.436-0.971,0.972s0.438,0.975,0.971,0.975c0.043,0,0.084-0.01,0.125-0.015
	v0.015c0.033,0.002,0.808,0.043,1.498,1.179c0.515,0.842,1.729,5,2.486,7.675H2.308c0.755-2.675,2.019-6.833,2.531-7.675
	c0.693-1.136,1.466-1.177,1.468-1.179v-0.004c0.008,0,0.014,0.004,0.023,0.004c0.536,0,0.971-0.438,0.971-0.975
	c0-0.521-0.414-0.942-0.931-0.967v-0.006c-0.195-0.01-1.903,0-3.189,2.108c-0.887,1.453-2.307,6.551-2.888,8.722
	c-0.168,0.338-0.273,0.718-0.273,1.125c0,0.615,0.194,1.589,0.466,2.896c0.088,0.423,0.17,0.812,0.22,1.104
	c0.349,1.976,1.592,2.271,2.302,2.271h5.867c1.208,0,2.157-0.959,2.311-2.332l0.111-2.801c0.494-0.297,1.112-0.297,1.606,0
	l0.106,2.75l0.007,0.051c0.151,1.373,1.103,2.332,2.312,2.332h5.864c0.711,0,1.957-0.297,2.304-2.271
	c0.051-0.293,0.133-0.686,0.221-1.104c0.272-1.31,0.468-2.28,0.468-2.896C24.18,832.961,24.075,832.582,23.907,832.244z
	 M9.252,837.118c-0.028,0.211-0.139,0.582-0.377,0.582H3.008c-0.109,0-0.273,0-0.389-0.666c-0.054-0.311-0.138-0.717-0.231-1.165
	c-0.113-0.535-0.247-1.187-0.334-1.713h7.371L9.252,837.118z M21.812,835.868c-0.092,0.448-0.18,0.854-0.23,1.165
	c-0.117,0.666-0.281,0.666-0.389,0.666h-5.865c-0.24,0-0.35-0.371-0.377-0.582l-0.176-2.962h7.373
	C22.061,834.684,21.925,835.333,21.812,835.868z"/>
<g id="Your_Icon">
	<path fill="#E74C3C" d="M8.279,296.055L0,287.723l4.021-4.049l4.376,4.402l11.798-11.87l3.904,3.93L8.279,296.055z"/>
</g>
<path fill="#E74C3C" d="M12.222,26.206c0.953-0.953,6.391-6.395,9.79-9.794c3.049-3.048,2.981-7.488,0.215-10.244
	c-2.771-2.756-7.248-2.744-10,0.028C9.47,3.423,4.991,3.411,2.222,6.167c-2.77,2.756-2.834,7.197,0.21,10.244
	C5.831,19.812,11.271,25.253,12.222,26.206z"/>
<path fill="#E74C3C" d="M14.333,1378.264c0,0,6.877-8.061,6.877-11.856c0-3.799-3.078-6.877-6.877-6.877
	c-3.798,0-6.878,3.08-6.878,6.877C7.455,1370.206,14.333,1378.264,14.333,1378.264z M14.333,1362.211
	c1.481,0,2.687,1.201,2.687,2.687c0,1.481-1.201,2.684-2.687,2.684c-1.482,0-2.684-1.199-2.684-2.684
	C11.65,1363.415,12.851,1362.211,14.333,1362.211z"/>
<g>
	<polygon fill="#E74C3C" points="5.407,1088.632 13.066,1096.294 21.104,1088.632 	"/>
	<polygon fill="#E74C3C" points="13.042,1097.548 12.561,1097.043 4.778,1089.263 4.778,1099.529 21.768,1099.529 21.768,1089.229 	
		"/>
</g>
<rect x="92.004" y="-59" width="25" height="25"/>
<path fill="#A8A8A8" d="M24.311,1649.09c-0.582-2.172-2.002-7.264-2.89-8.719c-1.284-2.105-2.998-2.113-3.188-2.105v0.011
	c-0.029-0.005-0.062-0.011-0.096-0.011c-0.533,0-0.971,0.437-0.971,0.972c0,0.536,0.439,0.973,0.971,0.973
	c0.043,0,0.084-0.01,0.125-0.014v0.014c0.033,0.002,0.809,0.043,1.498,1.178c0.516,0.845,1.73,4.998,2.486,7.672H2.71
	c0.755-2.674,2.019-6.827,2.531-7.672c0.693-1.135,1.466-1.176,1.468-1.178v-0.004c0.008,0,0.014,0.004,0.023,0.004
	c0.536,0,0.971-0.437,0.971-0.973c0-0.521-0.414-0.943-0.931-0.968v-0.004c-0.195-0.01-1.903,0-3.189,2.105
	c-0.887,1.455-2.307,6.547-2.888,8.719c-0.168,0.338-0.273,0.717-0.273,1.125c0,0.613,0.194,1.588,0.466,2.895
	c0.088,0.423,0.17,0.812,0.22,1.105c0.349,1.973,1.592,2.27,2.302,2.27h5.867c1.208,0,2.157-0.957,2.312-2.329l0.11-2.8
	c0.494-0.297,1.113-0.297,1.605,0l0.104,2.748l0.004,0.052c0.153,1.373,1.104,2.33,2.312,2.33h5.862
	c0.711,0,1.957-0.298,2.306-2.271c0.051-0.295,0.133-0.684,0.221-1.104c0.271-1.31,0.466-2.281,0.466-2.896
	C24.581,1649.807,24.479,1649.428,24.311,1649.09z M9.654,1653.959c-0.028,0.211-0.139,0.582-0.377,0.582H3.41
	c-0.109,0-0.273,0-0.389-0.666c-0.054-0.307-0.138-0.717-0.231-1.164c-0.113-0.533-0.247-1.184-0.334-1.713h7.371L9.654,1653.959z
	 M22.214,1652.711c-0.092,0.447-0.178,0.857-0.229,1.164c-0.116,0.666-0.28,0.666-0.389,0.666H15.73
	c-0.24,0-0.352-0.369-0.377-0.582l-0.178-2.961h7.373C22.462,1651.528,22.327,1652.178,22.214,1652.711z"/>
<polygon fill="#E74C3C" points="3.842,1916.485 12.502,1931.485 21.162,1916.485 "/>
<path fill="#E74C3C" d="M21.742,2064.337c-0.678,0.303-1.409,0.509-2.176,0.597c0.781-0.469,1.383-1.214,1.668-2.095
	c-0.734,0.431-1.547,0.747-2.41,0.922c-0.69-0.737-1.674-1.2-2.768-1.2c-2.095,0-3.792,1.701-3.792,3.789
	c0,0.302,0.032,0.588,0.097,0.865c-3.151-0.156-5.945-1.666-7.815-3.963c-0.326,0.562-0.514,1.213-0.514,1.907
	c0,1.315,0.673,2.479,1.687,3.153c-0.622-0.019-1.205-0.188-1.718-0.473v0.045c0,1.836,1.307,3.371,3.043,3.723
	c-0.32,0.084-0.653,0.131-0.999,0.131c-0.246,0-0.483-0.025-0.715-0.07c0.484,1.508,1.884,2.604,3.542,2.637
	c-1.298,1.017-2.933,1.617-4.708,1.617c-0.308,0-0.61-0.018-0.904-0.049c1.676,1.074,3.668,1.703,5.81,1.703
	c6.977,0,10.791-5.775,10.791-10.79l-0.014-0.486C20.592,2065.762,21.234,2065.098,21.742,2064.337z"/>
<path fill="#E74C3C" d="M18.859,2350.561H6.146c-0.645,0-1.169,0.527-1.169,1.17v12.716c0,0.644,0.524,1.169,1.169,1.169h6.464
	h2.988h3.262c0.643,0,1.168-0.525,1.168-1.169v-12.716C20.027,2351.088,19.502,2350.561,18.859,2350.561z M15.125,2364.625h-1.443"
	/>
<path fill="#FFFFFF" stroke="#FFFFFF" stroke-miterlimit="10" d="M13.682,2364.625v-5.551h-1.863v-1.368h1.863v-1.981
	c0-0.784,0.223-1.424,0.651-1.849c0.414-0.407,1.021-0.623,1.745-0.623c0.508,0,0.947,0.025,1.291,0.05v1.203l-0.779,0.002
	c-1.449,0-1.465,1.076-1.465,1.428v1.771h2.1l-0.182,1.368h-1.918v5.552"/>
<rect x="36.837" y="2080.372" width="73.002" height="260"/>
<rect x="61.002" fill="#FFFFFF" stroke="#000000" stroke-miterlimit="10" width="90" height="2503.166"/>
<text transform="matrix(1 0 0 1 4.8359 2432.499)" fill="#C1C1C1" font-family="'Myriad-Roman'" font-size="20.2797">@</text>
<text transform="matrix(1 0 0 1 4.8354 2503.166)" fill="#E74C3C" font-family="'Myriad-Roman'" font-size="20.2797">@</text>
</svg>
