<?xml version="1.0" encoding="utf-8"?>
<!-- Generator: Adobe Illustrator 16.0.0, SVG Export Plug-In . SVG Version: 6.00 Build 0)  -->
<!DOCTYPE svg PUBLIC "-//W3C//DTD SVG 1.1//EN" "http://www.w3.org/Graphics/SVG/1.1/DTD/svg11.dtd">
<svg version="1.1" id="Calque_1" xmlns="http://www.w3.org/2000/svg" xmlns:xlink="http://www.w3.org/1999/xlink" x="0px" y="0px"
	 width="27.98px" height="74.832px" viewBox="0 0 27.98 74.832" enable-background="new 0 0 27.98 74.832" xml:space="preserve">
<path fill="#FFFFFF" d="M25.057,15.971l-2.925,2.024V15.1c0,0-3.307,0-3.905,0c-5.556,0-10.714-9.85-14.885-9.85h-5.326V2.914h5.326
	c6.476,0,10.384,9.879,14.885,9.879c0.629,0,3.905,0,3.905,0V9.898l2.925,2.022l2.924,2.024L25.057,15.971z"/>
<path fill="#FFFFFF" d="M13.219,7.525c0.134,0.142,0.268,0.284,0.401,0.425c1.552-1.556,3.044-2.748,4.605-2.748
	c0.629,0,3.904,0,3.904,0v2.896l2.924-2.025l2.926-2.025l-2.926-2.024L22.132,0v2.895c0,0-3.307,0-3.905,0
	c-2.16,0-4.261,1.491-6.266,3.312C12.39,6.646,12.81,7.09,13.219,7.525z"/>
<path fill="#FFFFFF" d="M8.705,10.686c-0.227-0.225-0.456-0.451-0.688-0.678c-1.661,1.551-3.229,2.738-4.676,2.738h-5.326v2.336
	h5.326c2.494,0,4.604-1.466,6.518-3.268C9.469,11.438,9.083,11.059,8.705,10.686z"/>
<path fill="#E74C3C" d="M25.057,72.808l-2.925,2.024v-2.896c0,0-3.307,0-3.905,0c-5.556,0-10.714-9.852-14.885-9.852h-5.326v-2.337
	h5.326c6.476,0,10.384,9.882,14.885,9.882c0.629,0,3.905,0,3.905,0v-2.895l2.925,2.022l2.924,2.024L25.057,72.808z"/>
<path fill="#E74C3C" d="M13.219,64.361c0.134,0.142,0.268,0.284,0.401,0.425c1.552-1.557,3.044-2.749,4.605-2.749
	c0.629,0,3.904,0,3.904,0v2.897l2.924-2.026l2.926-2.026l-2.926-2.024l-2.922-2.025v2.896c0,0-3.307,0-3.905,0
	c-2.16,0-4.261,1.491-6.266,3.313C12.39,63.481,12.81,63.926,13.219,64.361z"/>
<path fill="#E74C3C" d="M8.705,67.522c-0.227-0.225-0.456-0.451-0.688-0.678c-1.661,1.551-3.229,2.738-4.676,2.738h-5.326v2.336
	h5.326c2.494,0,4.604-1.466,6.518-3.268C9.469,68.274,9.083,67.896,8.705,67.522z"/>
</svg>
