<?xml version="1.0" encoding="utf-8"?>
<!-- Generator: Adobe Illustrator 16.0.0, SVG Export Plug-In . SVG Version: 6.00 Build 0)  -->
<!DOCTYPE svg PUBLIC "-//W3C//DTD SVG 1.1//EN" "http://www.w3.org/Graphics/SVG/1.1/DTD/svg11.dtd">
<svg version="1.1" id="Calque_1" xmlns="http://www.w3.org/2000/svg" xmlns:xlink="http://www.w3.org/1999/xlink" x="0px" y="0px"
	 width="24.825px" height="132.064px" viewBox="0 0 24.825 132.064" enable-background="new 0 0 24.825 132.064"
	 xml:space="preserve">
<rect y="23.816" display="none" fill="#DD261D" width="24.684" height="52"/>
<path fill="#E84B3C" d="M18.226,15.33L18.226,15.33c2.565-3.876,1.989-8.904-1.312-12.256C15.028,1.188,12.621,0.193,10,0.193
	S4.921,1.24,3.035,3.074c-3.876,3.875-3.824,10.057-0.052,13.88c1.886,1.886,4.295,2.881,6.966,2.881
	c1.938,0,3.772-0.523,5.342-1.521l4.715,4.715c1.048,1.049,2.672,1.049,3.719,0l1.102-1.101L18.226,15.33z M5.968,13.969
	c-2.096-2.096-2.2-5.5-0.21-7.753C5.81,6.112,5.915,6.06,5.968,6.007c1.1-1.048,2.462-1.676,3.98-1.676
	c1.52,0,2.934,0.576,3.98,1.676c2.199,2.2,2.199,5.763,0,7.962c-1.047,1.047-2.46,1.677-3.98,1.677
	C8.43,15.645,7.068,15.015,5.968,13.969z"/>
<path fill="#A8A8A8" d="M18.226,67.33L18.226,67.33c2.565-3.876,1.989-8.907-1.312-12.262c-1.887-1.887-4.293-2.882-6.915-2.882
	s-5.08,1.047-6.966,2.882c-3.876,3.877-3.824,10.062-0.052,13.886c1.886,1.886,4.295,2.881,6.966,2.881
	c1.938,0,3.772-0.523,5.341-1.521l4.715,4.715c1.049,1.049,2.672,1.049,3.72,0l1.103-1.101L18.226,67.33z M5.968,65.969
	c-2.096-2.096-2.2-5.502-0.21-7.756c0.052-0.104,0.157-0.156,0.21-0.209c1.1-1.049,2.462-1.677,3.98-1.677
	c1.52,0,2.934,0.575,3.98,1.677c2.199,2.201,2.199,5.766,0,7.965c-1.047,1.047-2.46,1.677-3.98,1.677
	C8.43,67.645,7.068,67.015,5.968,65.969z"/>
<rect x="0.142" y="120.269" transform="matrix(0.7071 -0.7071 0.7071 0.7071 -82.6576 44.5803)" fill="#E84B3C" width="24.685" height="3.596"/>
<rect x="0.142" y="120.268" transform="matrix(-0.7071 -0.7071 0.7071 -0.7071 -65.0034 217.2065)" fill="#E84B3C" width="24.685" height="3.596"/>
</svg>
